<svg width="24" height="9" viewBox="0 0 24 9" fill="none" xmlns="http://www.w3.org/2000/svg">
<path d="M1.50266 9H0.394709L3.59925 0.272727H4.69016L7.89471 9H6.78675L4.1788 1.65341H4.11062L1.50266 9ZM1.91175 5.59091H6.37766V6.52841H1.91175V5.59091ZM11.6745 7.46591V1.84091H12.6291V7.46591H11.6745ZM9.33931 5.13068V4.17614H14.9643V5.13068H9.33931ZM17.1642 9V0.272727H20.2154C20.8233 0.272727 21.3248 0.377841 21.7196 0.588068C22.1145 0.795454 22.4086 1.07528 22.6017 1.42756C22.7949 1.77699 22.8915 2.16477 22.8915 2.59091C22.8915 2.96591 22.8248 3.27557 22.6912 3.51989C22.5605 3.7642 22.3873 3.95739 22.1713 4.09943C21.9583 4.24148 21.7267 4.34659 21.4767 4.41477V4.5C21.7438 4.51705 22.0123 4.6108 22.2821 4.78125C22.552 4.9517 22.7779 5.19602 22.9597 5.5142C23.1415 5.83239 23.2324 6.22159 23.2324 6.68182C23.2324 7.11932 23.133 7.51278 22.9341 7.86222C22.7353 8.21165 22.4213 8.48864 21.9924 8.69318C21.5634 8.89773 21.0051 9 20.3176 9H17.1642ZM18.2211 8.0625H20.3176C21.008 8.0625 21.498 7.92898 21.7878 7.66193C22.0804 7.39205 22.2267 7.06534 22.2267 6.68182C22.2267 6.38636 22.1515 6.11364 22.0009 5.86364C21.8503 5.6108 21.6358 5.40909 21.3574 5.25852C21.079 5.10511 20.7495 5.02841 20.3688 5.02841H18.2211V8.0625ZM18.2211 4.10795H20.1813C20.4995 4.10795 20.7864 4.04545 21.0421 3.92045C21.3006 3.79545 21.5051 3.61932 21.6557 3.39205C21.8091 3.16477 21.8858 2.89773 21.8858 2.59091C21.8858 2.20739 21.7523 1.8821 21.4853 1.61506C21.2182 1.34517 20.7949 1.21023 20.2154 1.21023H18.2211V4.10795Z" fill="white"/>
</svg>
