<svg width="22" height="9" viewBox="0 0 22 9" fill="none" xmlns="http://www.w3.org/2000/svg">
<path d="M1.69798 9H0.590021L3.79457 0.272727H4.88548L8.09002 9H6.98207L4.37411 1.65341H4.30593L1.69798 9ZM2.10707 5.59091H6.57298V6.52841H2.10707V5.59091ZM13.063 4.16761V5.10511H9.24485V4.16761H13.063ZM14.9689 9V0.272727H18.0201C18.628 0.272727 19.1294 0.377841 19.5243 0.588068C19.9192 0.795454 20.2132 1.07528 20.4064 1.42756C20.5996 1.77699 20.6962 2.16477 20.6962 2.59091C20.6962 2.96591 20.6294 3.27557 20.4959 3.51989C20.3652 3.7642 20.1919 3.95739 19.976 4.09943C19.763 4.24148 19.5314 4.34659 19.2814 4.41477V4.5C19.5485 4.51705 19.8169 4.6108 20.0868 4.78125C20.3567 4.9517 20.5826 5.19602 20.7644 5.5142C20.9462 5.83239 21.0371 6.22159 21.0371 6.68182C21.0371 7.11932 20.9377 7.51278 20.7388 7.86222C20.54 8.21165 20.226 8.48864 19.7971 8.69318C19.3681 8.89773 18.8098 9 18.1223 9H14.9689ZM16.0257 8.0625H18.1223C18.8127 8.0625 19.3027 7.92898 19.5925 7.66193C19.8851 7.39205 20.0314 7.06534 20.0314 6.68182C20.0314 6.38636 19.9561 6.11364 19.8056 5.86364C19.655 5.6108 19.4405 5.40909 19.1621 5.25852C18.8837 5.10511 18.5542 5.02841 18.1735 5.02841H16.0257V8.0625ZM16.0257 4.10795H17.986C18.3042 4.10795 18.5911 4.04545 18.8468 3.92045C19.1053 3.79545 19.3098 3.61932 19.4604 3.39205C19.6138 3.16477 19.6905 2.89773 19.6905 2.59091C19.6905 2.20739 19.557 1.8821 19.29 1.61506C19.0229 1.34517 18.5996 1.21023 18.0201 1.21023H16.0257V4.10795Z" fill="white"/>
</svg>
