<svg width="20" height="9" viewBox="0 0 20 9" fill="none" xmlns="http://www.w3.org/2000/svg">
<path d="M1.83629 5.0625V9H0.830611V2.45455H1.8022V3.47727H1.88743C2.04084 3.14489 2.27379 2.87784 2.58629 2.67614C2.89879 2.47159 3.3022 2.36932 3.79652 2.36932C4.2397 2.36932 4.62749 2.46023 4.95987 2.64205C5.29226 2.82102 5.55078 3.09375 5.73544 3.46023C5.9201 3.82386 6.01243 4.28409 6.01243 4.84091V9H5.00675V4.90909C5.00675 4.39489 4.87322 3.99432 4.60618 3.70739C4.33913 3.41761 3.97266 3.27273 3.50675 3.27273C3.18572 3.27273 2.89879 3.34233 2.64595 3.48153C2.39595 3.62074 2.19851 3.82386 2.05362 4.09091C1.90874 4.35795 1.83629 4.68182 1.83629 5.0625ZM9.5206 5.18182L9.58878 3.30682L8.00355 4.3125L7.59446 3.59659L9.26491 2.72727L7.59446 1.85795L8.00355 1.14205L9.58878 2.14773L9.5206 0.272727H10.3388L10.2706 2.14773L11.8558 1.14205L12.2649 1.85795L10.5945 2.72727L12.2649 3.59659L11.8558 4.3125L10.2706 3.30682L10.3388 5.18182H9.5206ZM13.3952 9H12.2873L15.4918 0.272727H16.5827L19.7873 9H18.6793L16.0714 1.65341H16.0032L13.3952 9ZM13.8043 5.59091H18.2702V6.52841H13.8043V5.59091Z" fill="white"/>
</svg>
